<?xml version="1.0" encoding="iso-8859-1"?>
<!-- Uploaded to: SVG Repo, www.svgrepo.com, Generator: SVG Repo Mixer Tools -->
<svg fill="#000000" height="800px" width="800px" version="1.1" id="Layer_1" xmlns="http://www.w3.org/2000/svg" xmlns:xlink="http://www.w3.org/1999/xlink" 
	 viewBox="0 0 512.012 512.012" xml:space="preserve">
<g transform="translate(-1)">
	<g>
		<g>
			<path d="M427.678,376.794c-11.776,0-21.333,9.557-21.333,21.333s9.557,21.333,21.333,21.333s21.333-9.557,21.333-21.333
				S439.454,376.794,427.678,376.794z"/>
			<path d="M491.678,342.276V291.46c0-58.816-46.315-106.667-103.253-106.667h-24.747v-42.667c0-11.776-9.557-21.333-21.333-21.333
				c-11.776,0-21.333,9.557-21.333,21.333v12.501l-33.835-33.835l6.251-6.251c8.341-8.341,8.341-21.824,0-30.165
				c-8.341-8.341-21.824-8.341-30.165,0l-42.667,42.667c-8.341,8.341-8.341,21.824,0,30.165c4.16,4.16,9.621,6.251,15.083,6.251
				c5.461,0,10.923-2.091,15.083-6.251l6.251-6.251l64,64v55.168c0,11.776,9.557,21.333,21.333,21.333h21.333v42.667h-43.925
				c-7.68-69.099-52.16-127.168-113.365-154.24L168.052,71.258c-11.776-33.28-48.405-50.816-81.664-39.04
				C70.281,37.892,57.332,49.519,49.95,64.943c-7.381,15.424-8.299,32.789-2.603,48.917l21.035,59.563
				c-21.44,7.147-41.621,17.92-59.392,32.171c-9.195,7.36-10.667,20.779-3.307,29.973c7.381,9.195,20.8,10.667,29.995,3.307
				c19.435-15.573,41.856-25.643,65.813-30.08c3.136-0.576,6.229-0.768,9.344-1.152c4.821-0.576,9.643-1.088,14.549-1.216
				c4.672-0.107,9.344-0.107,13.973,0.235c1.024,0.064,2.091,0.064,3.115,0.149c6.507,0.597,12.971,1.6,19.392,3.072
				c0.128,0.043,0.277,0.085,0.405,0.107c6.571,1.536,13.056,3.499,19.499,5.931c49.92,18.965,87.04,63.851,94.869,118.208h-21.547
				c-10.219-60.437-62.784-106.667-126.08-106.667c-70.592,0-128,57.408-128,128s57.408,128,128,128
				c63.296,0,115.861-46.229,126.08-106.667h90.283c-1.792,6.869-3.029,13.931-3.029,21.333c0,47.061,38.272,85.333,85.333,85.333
				s85.333-38.272,85.333-85.333C513.012,376.687,504.798,357.295,491.678,342.276z M129.012,376.794
				c-11.776,0-21.333-9.557-21.333-21.333s9.557-21.333,21.333-21.333s21.333,9.557,21.333,21.333S140.788,376.794,129.012,376.794z
				 M427.678,440.794c-23.531,0-42.667-19.136-42.667-42.667c0-12.395,5.397-23.488,13.867-31.275
				c0.128-0.107,0.299-0.149,0.405-0.256c3.947-3.541,9.856-7.445,17.493-9.557c0.64-0.171,1.237-0.448,1.877-0.576
				c2.795-0.619,5.781-1.003,9.024-1.003s6.229,0.384,9.024,1.003c0.64,0.149,1.237,0.405,1.877,0.597
				c7.637,2.091,13.568,5.995,17.493,9.515c0.128,0.128,0.299,0.192,0.448,0.299c8.448,7.808,13.824,18.88,13.824,31.253
				C470.345,421.658,451.209,440.794,427.678,440.794z"/>
		</g>
	</g>
</g>
</svg>