<?xml version="1.0" encoding="iso-8859-1"?>
<!-- Uploaded to: SVG Repo, www.svgrepo.com, Generator: SVG Repo Mixer Tools -->
<svg fill="#000000" version="1.1" id="Layer_1" xmlns="http://www.w3.org/2000/svg" xmlns:xlink="http://www.w3.org/1999/xlink" 
	 viewBox="0 0 512.042 512.042" xml:space="preserve">
<g transform="translate(-1)">
	<g>
		<g>
			<path d="M498.924,352.428c8.31-1.284,14.118-8.058,14.118-16.468c0-8.402-5.808-15.167-14.076-16.216
				c7.504-3.794,10.928-12.036,8.326-20.035c-2.602-7.991-10.215-12.657-18.398-11.063c0.235-0.235,0.411-0.504,0.63-0.747
				c9.35-6.287,15.125-16.812,15.125-28.034v-33.221h-41.967c-4.642,0-8.393-3.752-8.393-8.393s3.752-8.393,8.393-8.393h41.967
				v-20.824c0-11.658-9.485-21.143-21.151-21.143h-34.573c-11.776,0-23.216-3.038-33.423-8.393H133.893
				c-8.461,0-15.343-6.883-15.343-15.343v-36.461c0-8.461,6.883-15.343,15.343-15.343h228.234l-3.626-5.892
				c-10.509-17.072-29.486-27.682-49.538-27.682H137.998c-20.069,0-39.063,10.618-49.572,27.724l-41.741,67.953
				c-5.086,8.293-14.294,13.438-24.425,13.438c-5.716,0-11.079,2.216-15.091,6.228c-3.987,3.995-6.178,9.292-6.169,14.949
				c0.008,5.674,0.017,12.926,0.017,20.791h41.992c4.633,0,8.393,3.752,8.393,8.393s-3.76,8.393-8.393,8.393H1.025
				c0.008,13.346,0.008,27.027,0.017,37.829c0,10.861,6.018,20.262,14.84,25.323c-3.995,1.88-7.185,5.321-8.679,9.921
				c-2.602,7.999,0.823,16.233,8.368,19.783c-8.31,1.293-14.109,8.058-14.109,16.46c0,8.41,5.8,15.184,14.076,16.233
				c-7.512,3.794-10.937,12.019-8.335,20.027c2.594,7.999,10.215,12.641,18.407,11.079c-5.976,5.926-6.698,14.814-1.746,21.622
				c4.935,6.807,13.631,8.855,20.916,4.843c-3.836,7.487-1.771,16.157,5.036,21.101c6.799,4.944,15.687,4.239,21.395-1.855
				c-1.343,8.301,3.299,15.922,11.298,18.516c7.991,2.577,16.233-0.831,19.783-8.385c1.284,8.318,8.049,14.126,16.468,14.126
				c8.41,0,15.184-5.808,16.225-14.084c3.794,7.521,12.036,10.928,20.027,8.335c7.991-2.594,12.641-10.206,11.079-18.398
				c5.926,5.968,14.806,6.706,21.613,1.746c6.799-4.944,8.863-13.614,4.843-20.933c7.495,3.869,16.157,1.796,21.109-5.011
				c4.935-6.799,4.222-15.696-1.863-21.412c8.284,1.335,15.914-3.29,18.516-11.281c2.602-8.007-0.823-16.241-8.368-19.8
				c8.31-1.284,14.118-8.058,14.118-16.468c0-8.402-5.808-15.167-14.076-16.216c7.504-3.794,10.928-12.036,8.326-20.035
				c-0.739-2.283-1.93-4.247-3.383-5.917h60.651c-1.46,1.67-2.652,3.643-3.391,5.926c-2.602,7.999,0.823,16.233,8.368,19.783
				c-8.31,1.293-14.109,8.058-14.109,16.46c0,8.41,5.8,15.184,14.076,16.233c-7.512,3.794-10.937,12.019-8.335,20.027
				c2.594,7.999,10.223,12.641,18.407,11.079c-5.976,5.926-6.698,14.814-1.746,21.622c4.944,6.807,13.623,8.855,20.916,4.843
				c-3.836,7.487-1.771,16.157,5.036,21.101c6.807,4.944,15.696,4.239,21.395-1.855c-1.343,8.301,3.299,15.922,11.298,18.516
				c7.982,2.577,16.224-0.831,19.783-8.385c1.284,8.318,8.049,14.126,16.468,14.126c8.41,0,15.184-5.808,16.225-14.084
				c3.794,7.521,12.036,10.928,20.027,8.335c7.991-2.594,12.641-10.206,11.079-18.398c5.926,5.968,14.806,6.706,21.613,1.746
				c6.799-4.944,8.864-13.614,4.843-20.933c7.495,3.869,16.157,1.796,21.109-5.011c4.935-6.799,4.222-15.696-1.863-21.412
				c8.284,1.335,15.914-3.29,18.516-11.281C509.894,364.221,506.47,355.987,498.924,352.428z M205.464,349.7
				c-1.158,7.285,2.359,14.151,9.023,17.24c-7.286-1.158-14.16,2.3-17.509,8.88c-3.357,6.58-2.132,14.193,3.248,19.179
				c-6.572-3.366-14.185-2.182-19.406,3.055c-5.212,5.221-6.396,12.825-2.82,19.246c-5.204-5.246-12.817-6.471-19.389-3.106
				c-6.58,3.349-10.064,10.215-8.645,17.433c-3.324-6.597-10.24-10.131-17.475-8.956c-7.294,1.158-12.733,6.614-13.606,13.908
				c-1.133-7.302-6.572-12.758-13.866-13.908c-0.923-0.143-1.83-0.218-2.728-0.218c-6.236,0-11.81,3.416-14.512,9.25
				c1.183-7.294-2.3-14.168-8.88-17.517c-6.572-3.349-14.185-2.132-19.187,3.248c3.383-6.555,2.191-14.168-3.03-19.389
				c-5.221-5.212-12.834-6.421-19.255-2.829c5.238-5.204,6.463-12.817,3.114-19.397c-3.357-6.572-10.232-10.089-17.442-8.645
				c6.589-3.324,10.106-10.19,8.947-17.475c-1.15-7.286-6.614-12.733-13.908-13.606c7.294-1.133,12.758-6.572,13.908-13.858
				c1.158-7.294-2.359-14.151-9.023-17.24c7.294,1.15,14.168-2.308,17.517-8.889c1.964-3.861,2.174-8.033,1.066-11.868
				c-0.101-0.722-0.285-1.427-0.571-2.115c-0.117-0.277-0.285-0.487-0.411-0.747c-0.092-0.176-0.185-0.336-0.277-0.504
				c-0.806-1.544-1.763-2.929-3.072-3.953c6.564,3.383,14.185,2.191,19.397-3.022c1.309-1.309,2.367-2.761,3.156-4.314
				c2.367-4.642,2.367-10.131-0.319-14.949c0.017,0.008,0.034,0.017,0.042,0.025c0.839,0.848,1.654,1.368,1.964,1.561
				c0.143,0.109,0.319,0.134,0.462,0.235c4.986,3.492,11.281,4.155,16.921,1.293c6.522-3.324,9.971-10.114,8.654-17.257
				c0.185,0.252,0.411,0.453,0.613,0.68c3.492,5.976,9.93,9.182,16.854,8.083c5.775-0.906,10.274-4.574,12.364-9.745
				c0.168-0.311,0.42-0.571,0.554-0.898c0.269-0.671,0.713-1.788,0.697-3.265c1.125,7.294,6.564,12.758,13.858,13.908
				c7.294,1.167,14.151-2.35,17.232-9.023c-1.175,7.286,2.308,14.16,8.889,17.509c4.608,2.359,9.686,2.333,14.059,0.327
				c0.302-0.143,0.646-0.168,0.948-0.327c0.512-0.277,0.923-0.764,1.41-1.1c0.957-0.663,1.939-1.259,2.77-2.149
				c-0.453,0.881-0.613,1.805-0.906,2.711c-0.252,0.789-0.646,1.553-0.781,2.35c-0.848,5.162,0.806,10.425,4.717,14.344
				c4.138,4.138,9.778,5.624,15.15,4.314c1.393-0.344,2.778-0.747,4.104-1.486c0,0-0.008,0.008-0.017,0.017
				c-1.041,1.041-1.872,2.241-2.61,3.542c-0.285,0.487-0.554,0.974-0.781,1.477c-0.067,0.143-0.151,0.252-0.21,0.386
				c-0.21,0.512-0.327,1.041-0.436,1.561c-1.242,4.012-1.1,8.377,0.948,12.397c3.349,6.581,10.232,10.089,17.433,8.654
				c-6.589,3.324-10.106,10.181-8.947,17.475c1.158,7.294,6.614,12.724,13.908,13.606
				C212.078,336.967,206.623,342.406,205.464,349.7z M482.448,349.7c-1.158,7.285,2.359,14.151,9.023,17.24
				c-7.302-1.158-14.16,2.3-17.509,8.88c-3.357,6.58-2.132,14.193,3.248,19.179c-6.572-3.366-14.185-2.182-19.406,3.055
				c-5.212,5.221-6.396,12.825-2.82,19.246c-5.212-5.246-12.808-6.471-19.389-3.106c-6.58,3.349-10.064,10.215-8.645,17.433
				c-3.324-6.597-10.24-10.131-17.475-8.956c-7.294,1.158-12.733,6.614-13.606,13.908c-1.133-7.302-6.572-12.758-13.866-13.908
				c-0.923-0.143-1.83-0.218-2.728-0.218c-6.236,0-11.81,3.416-14.512,9.25c1.183-7.294-2.3-14.168-8.88-17.517
				c-6.572-3.349-14.185-2.132-19.187,3.248c3.383-6.555,2.191-14.168-3.03-19.389c-5.229-5.212-12.834-6.421-19.255-2.829
				c5.238-5.204,6.463-12.817,3.114-19.397c-3.357-6.572-10.24-10.089-17.442-8.645c6.589-3.324,10.106-10.19,8.947-17.475
				c-1.15-7.286-6.614-12.733-13.908-13.606c7.294-1.133,12.758-6.572,13.908-13.858c1.158-7.294-2.359-14.151-9.023-17.24
				c7.286,1.15,14.16-2.308,17.517-8.889c1.964-3.861,2.174-8.033,1.066-11.868c-0.101-0.722-0.285-1.427-0.571-2.115
				c-0.117-0.277-0.285-0.487-0.411-0.747c-0.092-0.176-0.185-0.336-0.277-0.504c-0.806-1.544-1.763-2.929-3.072-3.953
				c6.572,3.383,14.177,2.191,19.397-3.022c1.309-1.309,2.367-2.761,3.156-4.314c2.367-4.642,2.367-10.131-0.311-14.949
				c1.586,1.603,3.425,2.686,5.363,3.525c3.618,1.561,7.604,1.687,11.465,0.42c0.856-0.277,1.721-0.411,2.552-0.831
				c3.29-1.679,5.808-4.23,7.319-7.277c0.428-0.839,0.571-1.796,0.839-2.711c0.201-0.722,0.554-1.402,0.663-2.157
				c0.227-1.712,0.176-3.492-0.176-5.296c0.789,1.561,1.796,2.946,2.971,4.146c0.974,1.016,2.115,1.788,3.299,2.51
				c0.21,0.134,0.378,0.327,0.604,0.445c1.175,0.646,2.459,1.041,3.777,1.385c0.311,0.076,0.596,0.235,0.915,0.294
				c1.158,0.227,2.367,0.201,3.584,0.176c0.462-0.008,0.89,0.117,1.351,0.067c0.084-0.008,0.159-0.059,0.235-0.076
				c0.252-0.025,0.487,0.042,0.739,0c3.718-0.588,6.933-2.317,9.325-4.835c2.426-2.476,3.995-5.59,4.281-9.115
				c0,0.025,0,0.017,0.008,0.042c0,0.008,0.008,0.017,0.008,0.025c0.176,1.116,0.487,1.947,0.52,1.947
				c0.067,0.235,0.21,0.411,0.294,0.63c1.914,5.917,6.673,10.299,13.035,11.306c5.875,0.94,11.373-1.276,14.94-5.632
				c0.411-0.394,0.839-0.755,1.175-1.267c0.403-0.487,0.839-1.561,1.116-2.124c-0.26,1.654-0.269,3.324-0.025,4.961
				c0.688,5.313,3.861,9.971,8.914,12.548c0.42,0.218,0.865,0.243,1.293,0.428c0.109,0.042,0.185,0.151,0.294,0.193
				c0.352,0.134,0.705,0.134,1.058,0.252c1.133,0.361,2.249,0.68,3.391,0.797c0.52,0.05,1.024-0.008,1.544-0.008
				c1.074,0,2.14,0.017,3.181-0.201c0.797-0.159,1.536-0.512,2.3-0.789c0.722-0.277,1.46-0.445,2.149-0.831
				c1.444-0.797,2.795-1.805,3.979-3.089c-0.453,0.881-0.613,1.805-0.906,2.711c-0.252,0.789-0.646,1.553-0.781,2.35
				c-0.848,5.162,0.806,10.425,4.717,14.344c1.553,1.544,3.341,2.619,5.221,3.433c4.398,1.922,9.401,1.889,13.883-0.554
				c-0.134,0.176-0.193,0.386-0.311,0.571c-4.767,5.179-5.875,12.422-2.644,18.759c3.349,6.581,10.232,10.089,17.433,8.654
				c-6.589,3.324-10.106,10.181-8.947,17.475c1.158,7.294,6.614,12.724,13.908,13.606
				C489.062,336.967,483.606,342.406,482.448,349.7z"/>
			<path d="M261.234,142.709h133.095c-2.484-2.871-4.826-5.884-6.841-9.157l-15.033-24.417H261.234V142.709z"/>
			<rect x="135.333" y="109.135" width="109.115" height="33.574"/>
			<path d="M395.95,268.61c-37.023,0-67.148,30.124-67.148,67.148c0,37.023,30.124,67.148,67.148,67.148
				c37.023,0,67.148-30.124,67.148-67.148C463.098,298.734,432.974,268.61,395.95,268.61z M395.95,352.545
				c-9.275,0-16.787-7.521-16.787-16.787c0-9.275,7.512-16.787,16.787-16.787c9.275,0,16.787,7.512,16.787,16.787
				C412.737,345.024,405.225,352.545,395.95,352.545z"/>
			<path d="M118.966,268.61c-37.023,0-67.148,30.124-67.148,67.148c0,37.023,30.124,67.148,67.148,67.148
				c37.023,0,67.148-30.124,67.148-67.148C186.114,298.734,155.99,268.61,118.966,268.61z M118.966,352.545
				c-9.275,0-16.787-7.521-16.787-16.787c0-9.275,7.512-16.787,16.787-16.787c9.275,0,16.787,7.512,16.787,16.787
				C135.753,345.024,128.241,352.545,118.966,352.545z"/>
		</g>
	</g>
</g>
</svg>