<?xml version="1.0" encoding="iso-8859-1"?>
<!-- Uploaded to: SVG Repo, www.svgrepo.com, Generator: SVG Repo Mixer Tools -->
<svg height="800px" width="800px" version="1.1" id="Layer_1" xmlns="http://www.w3.org/2000/svg" xmlns:xlink="http://www.w3.org/1999/xlink" 
	 viewBox="0 0 512 512" xml:space="preserve">
<polygon style="fill:#AEADB3;" points="358.589,186.879 358.589,239.452 272.658,239.452 272.658,368.609 241.259,368.609 
	241.259,239.452 155.329,239.452 155.329,186.879 186.729,186.879 186.729,208.053 241.259,208.053 241.259,31.399 224.952,31.399 
	224.952,0 288.965,0 288.965,31.399 272.658,31.399 272.658,208.053 327.19,208.053 327.19,186.879 "/>
<polygon style="fill:#8B8892;" points="358.589,186.879 358.589,239.452 272.658,239.452 272.658,368.609 257.295,368.609 
	257.295,0 288.965,0 288.965,31.399 272.658,31.399 272.658,208.053 327.19,208.053 327.19,186.879 "/>
<polygon style="fill:#FFC473;" points="220.49,75.56 208.022,189.89 132.114,189.89 119.645,75.56 "/>
<polygon style="fill:#FFA91F;" points="220.49,75.56 208.022,189.89 170.375,189.89 170.375,75.56 "/>
<path style="fill:#57555C;" d="M232.164,89.639c0,0.201-0.009,0.394-0.009,0.594l-0.134,14.099H108.116l-0.134-14.099
	c0-0.201-0.009-0.403-0.009-0.594c0-29.177,20.229-53.703,47.402-60.321v-8.93h28.774v8.786
	C211.618,35.572,232.164,60.242,232.164,89.639z"/>
<path style="fill:#2B292C;" d="M232.164,89.639c0,0.201-0.009,0.394-0.009,0.594l-0.134,14.099h-61.645V20.389h13.773v8.786
	C211.618,35.572,232.164,60.242,232.164,89.639z"/>
<polygon style="fill:#FFC473;" points="392.355,75.56 379.886,189.89 303.978,189.89 291.51,75.56 "/>
<polygon style="fill:#FFA91F;" points="392.355,75.56 379.886,189.89 342.24,189.89 342.24,75.56 "/>
<path style="fill:#57555C;" d="M404.028,89.639c0,0.201-0.009,0.394-0.009,0.594l-0.134,14.099H279.981l-0.134-14.099
	c0-0.201-0.009-0.403-0.009-0.594c0-29.177,20.229-53.703,47.402-60.321v-8.93h28.775v8.786
	C383.483,35.572,404.028,60.242,404.028,89.639z"/>
<path style="fill:#2B292C;" d="M404.028,89.639c0,0.201-0.009,0.394-0.009,0.594l-0.134,14.099H342.24V20.389h13.773v8.786
	C383.483,35.572,404.028,60.242,404.028,89.639z"/>
<polygon style="fill:#0082D2;" points="317.403,480.6 317.403,512 196.515,512 196.515,480.6 204.04,480.6 216.077,361.481 
	297.841,361.481 309.877,480.6 "/>
<polygon style="fill:#005C94;" points="317.403,480.6 317.403,512 257.294,512 257.294,361.481 297.841,361.481 309.877,480.6 "/>
</svg>